<svg width="17" height="18" viewBox="0 0 17 18" fill="none" xmlns="http://www.w3.org/2000/svg">
<path d="M11.44 3.17384C12.7925 3.17384 13.88 4.26835 13.88 5.61383C13.88 6.93142 12.8343 8.00502 11.5307 8.05382C11.4705 8.04685 11.4096 8.04685 11.3494 8.05382M12.7855 14.3281C13.2875 14.2235 13.7615 14.0213 14.1519 13.7216C15.2395 12.9059 15.2395 11.5604 14.1519 10.7448C13.7685 10.452 13.3014 10.2568 12.8064 10.1452M6.38578 7.96319C6.31606 7.95622 6.23241 7.95622 6.15572 7.96319C5.35555 7.93602 4.59736 7.59847 4.04173 7.02202C3.4861 6.44557 3.17666 5.67549 3.17893 4.87486C3.17893 3.16687 4.55927 1.77956 6.27424 1.77956C7.09424 1.76476 7.88653 2.07632 8.47681 2.64569C9.0671 3.21506 9.40703 3.9956 9.42182 4.8156C9.43662 5.6356 9.12506 6.4279 8.55569 7.01818C7.98632 7.60847 7.20578 7.9484 6.38578 7.96319ZM2.90008 10.5356C1.213 11.665 1.213 13.5055 2.90008 14.6279C4.81721 15.9106 7.96132 15.9106 9.87845 14.6279C11.5655 13.4985 11.5655 11.658 9.87845 10.5356C7.96829 9.25987 4.82418 9.25987 2.90008 10.5356Z" stroke="#616161" stroke-width="1.04571" stroke-linecap="round" stroke-linejoin="round"/>
</svg>
