<svg width="26" height="24" viewBox="0 0 26 24" fill="none" xmlns="http://www.w3.org/2000/svg">
<path d="M23.2857 22.1538V11.1538ZM2.71429 11.1538V22.1538ZM19.7752 1H6.22482C5.0575 1 4.00321 1.63462 3.55 2.61087L1.23036 7.61058C0.449286 9.29284 1.74625 11.1988 3.75839 11.2596H3.86554C5.54768 11.2596 6.91107 9.92798 6.91107 8.49745C6.91107 9.92534 8.275 11.2596 9.95714 11.2596C11.6393 11.2596 13 10.0232 13 8.49745C13 9.92534 14.3634 11.2596 16.0455 11.2596C17.7277 11.2596 19.0916 10.0232 19.0916 8.49745C19.0916 10.0232 20.455 11.2596 22.1371 11.2596H22.2416C24.2538 11.1977 25.5507 9.29178 24.7696 7.61058L22.45 2.61087C21.9968 1.63462 20.9425 1 19.7752 1ZM1 23H25ZM6.57143 13.6923H10.8571C11.1981 13.6923 11.5252 13.826 11.7663 14.0641C12.0074 14.3021 12.1429 14.6249 12.1429 14.9615V19.6154H5.28571V14.9615C5.28571 14.6249 5.42117 14.3021 5.66229 14.0641C5.90341 13.826 6.23044 13.6923 6.57143 13.6923ZM14.7143 23V14.9615C14.7143 14.6249 14.8497 14.3021 15.0909 14.0641C15.332 13.826 15.659 13.6923 16 13.6923H19.4286C19.7696 13.6923 20.0966 13.826 20.3377 14.0641C20.5788 14.3021 20.7143 14.6249 20.7143 14.9615V23" fill="#FFDDD6"/>
<path d="M23.2857 22.1538V11.1538M2.71429 11.1538V22.1538M1 23H25M14.7143 23V14.9615C14.7143 14.6249 14.8497 14.3021 15.0909 14.0641C15.332 13.826 15.659 13.6923 16 13.6923H19.4286C19.7696 13.6923 20.0966 13.826 20.3377 14.0641C20.5788 14.3021 20.7143 14.6249 20.7143 14.9615V23M19.7752 1H6.22482C5.0575 1 4.00321 1.63462 3.55 2.61087L1.23036 7.61058C0.449286 9.29284 1.74625 11.1988 3.75839 11.2596H3.86554C5.54768 11.2596 6.91107 9.92798 6.91107 8.49745C6.91107 9.92534 8.275 11.2596 9.95714 11.2596C11.6393 11.2596 13 10.0232 13 8.49745C13 9.92534 14.3634 11.2596 16.0455 11.2596C17.7277 11.2596 19.0916 10.0232 19.0916 8.49745C19.0916 10.0232 20.455 11.2596 22.1371 11.2596H22.2416C24.2538 11.1977 25.5507 9.29178 24.7696 7.61058L22.45 2.61087C21.9968 1.63462 20.9425 1 19.7752 1ZM6.57143 13.6923H10.8571C11.1981 13.6923 11.5252 13.826 11.7663 14.0641C12.0074 14.3021 12.1429 14.6249 12.1429 14.9615V19.6154H5.28571V14.9615C5.28571 14.6249 5.42117 14.3021 5.66229 14.0641C5.90341 13.826 6.23044 13.6923 6.57143 13.6923Z" stroke="#F14C4C" stroke-width="1.25" stroke-linecap="round" stroke-linejoin="round"/>
</svg>
