<svg width="36" height="36" viewBox="0 0 36 36" fill="none" xmlns="http://www.w3.org/2000/svg">
<path d="M31.6719 5.42188H28.3906V7.0625C28.3906 7.49762 28.2178 7.91492 27.9101 8.2226C27.6024 8.53027 27.1851 8.70312 26.75 8.70312C26.3149 8.70312 25.8976 8.53027 25.5899 8.2226C25.2822 7.91492 25.1094 7.49762 25.1094 7.0625V5.42188H19.6406V7.0625C19.6406 7.49762 19.4678 7.91492 19.1601 8.2226C18.8524 8.53027 18.4351 8.70312 18 8.70312C17.5649 8.70312 17.1476 8.53027 16.8399 8.2226C16.5322 7.91492 16.3594 7.49762 16.3594 7.0625V5.42188H10.8906V7.0625C10.8906 7.49762 10.7178 7.91492 10.4101 8.2226C10.1024 8.53027 9.68512 8.70312 9.25 8.70312C8.81488 8.70312 8.39758 8.53027 8.0899 8.2226C7.78223 7.91492 7.60938 7.49762 7.60938 7.0625V5.42188H4.32812C3.74796 5.42188 3.19157 5.65234 2.78134 6.06258C2.3711 6.47281 2.14063 7.02921 2.14062 7.60938V11.9844H33.8594V7.60938C33.8594 7.02921 33.6289 6.47281 33.2187 6.06258C32.8084 5.65234 32.252 5.42188 31.6719 5.42188Z" fill="#FFD2D2"/>
<path d="M15.8125 15.8125H13.625C13.323 15.8125 13.0781 16.0573 13.0781 16.3594V18C13.0781 18.302 13.323 18.5469 13.625 18.5469H15.8125C16.1145 18.5469 16.3594 18.302 16.3594 18V16.3594C16.3594 16.0573 16.1145 15.8125 15.8125 15.8125Z" fill="#FFD2D2"/>
<path d="M9.25 15.8125H7.0625C6.76047 15.8125 6.51562 16.0573 6.51562 16.3594V18C6.51562 18.302 6.76047 18.5469 7.0625 18.5469H9.25C9.55203 18.5469 9.79688 18.302 9.79688 18V16.3594C9.79688 16.0573 9.55203 15.8125 9.25 15.8125Z" fill="#FFD2D2"/>
<path d="M28.9375 15.8125H26.75C26.448 15.8125 26.2031 16.0573 26.2031 16.3594V18C26.2031 18.302 26.448 18.5469 26.75 18.5469H28.9375C29.2395 18.5469 29.4844 18.302 29.4844 18V16.3594C29.4844 16.0573 29.2395 15.8125 28.9375 15.8125Z" fill="#FFD2D2"/>
<path d="M15.8125 20.7344H13.625C13.323 20.7344 13.0781 20.9792 13.0781 21.2812V22.9219C13.0781 23.2239 13.323 23.4688 13.625 23.4688H15.8125C16.1145 23.4688 16.3594 23.2239 16.3594 22.9219V21.2812C16.3594 20.9792 16.1145 20.7344 15.8125 20.7344Z" fill="#FFD2D2"/>
<path d="M9.25 20.7344H7.0625C6.76047 20.7344 6.51562 20.9792 6.51562 21.2812V22.9219C6.51562 23.2239 6.76047 23.4688 7.0625 23.4688H9.25C9.55203 23.4688 9.79688 23.2239 9.79688 22.9219V21.2812C9.79688 20.9792 9.55203 20.7344 9.25 20.7344Z" fill="#FFD2D2"/>
<path d="M15.8125 25.6562H13.625C13.323 25.6562 13.0781 25.9011 13.0781 26.2031V27.8438C13.0781 28.1458 13.323 28.3906 13.625 28.3906H15.8125C16.1145 28.3906 16.3594 28.1458 16.3594 27.8438V26.2031C16.3594 25.9011 16.1145 25.6562 15.8125 25.6562Z" fill="#FFD2D2"/>
<path d="M22.375 15.8125H20.1875C19.8855 15.8125 19.6406 16.0573 19.6406 16.3594V18C19.6406 18.302 19.8855 18.5469 20.1875 18.5469H22.375C22.677 18.5469 22.9219 18.302 22.9219 18V16.3594C22.9219 16.0573 22.677 15.8125 22.375 15.8125Z" fill="#FFD2D2"/>
<path d="M22.375 20.7344H20.1875C19.8855 20.7344 19.6406 20.9792 19.6406 21.2812V22.9219C19.6406 23.2239 19.8855 23.4688 20.1875 23.4688H22.375C22.677 23.4688 22.9219 23.2239 22.9219 22.9219V21.2812C22.9219 20.9792 22.677 20.7344 22.375 20.7344Z" fill="#FFD2D2"/>
<path d="M9.25 25.6562H7.0625C6.76047 25.6562 6.51562 25.9011 6.51562 26.2031V27.8438C6.51562 28.1458 6.76047 28.3906 7.0625 28.3906H9.25C9.55203 28.3906 9.79688 28.1458 9.79688 27.8438V26.2031C9.79688 25.9011 9.55203 25.6562 9.25 25.6562Z" fill="#FFD2D2"/>
<path d="M27.2969 33.8594C30.9212 33.8594 33.8594 30.9212 33.8594 27.2969C33.8594 23.6725 30.9212 20.7344 27.2969 20.7344C23.6725 20.7344 20.7344 23.6725 20.7344 27.2969C20.7344 30.9212 23.6725 33.8594 27.2969 33.8594Z" fill="#FFD2D2"/>
<path d="M31.6719 4.875H28.9375V3.78125C28.9375 3.20109 28.707 2.64469 28.2968 2.23445C27.8866 1.82422 27.3302 1.59375 26.75 1.59375C26.1698 1.59375 25.6134 1.82422 25.2032 2.23445C24.793 2.64469 24.5625 3.20109 24.5625 3.78125V4.875H20.1875V3.78125C20.1875 3.20109 19.957 2.64469 19.5468 2.23445C19.1366 1.82422 18.5802 1.59375 18 1.59375C17.4198 1.59375 16.8634 1.82422 16.4532 2.23445C16.043 2.64469 15.8125 3.20109 15.8125 3.78125V4.875H11.4375V3.78125C11.4375 3.20109 11.207 2.64469 10.7968 2.23445C10.3866 1.82422 9.83016 1.59375 9.25 1.59375C8.66984 1.59375 8.11344 1.82422 7.7032 2.23445C7.29297 2.64469 7.0625 3.20109 7.0625 3.78125V4.875H4.32812C3.60292 4.875 2.90742 5.16308 2.39463 5.67588C1.88184 6.18867 1.59375 6.88417 1.59375 7.60938V29.4844C1.59375 30.2096 1.88184 30.9051 2.39463 31.4179C2.90742 31.9307 3.60292 32.2188 4.32812 32.2188H19.6406C19.7857 32.2188 19.9248 32.1611 20.0273 32.0586C20.1299 31.956 20.1875 31.8169 20.1875 31.6719C20.1875 31.5268 20.1299 31.3877 20.0273 31.2852C19.9248 31.1826 19.7857 31.125 19.6406 31.125H4.32812C3.8934 31.1237 3.47686 30.9504 3.16946 30.643C2.86207 30.3356 2.6888 29.9191 2.6875 29.4844V12.5312H33.3125V21.8281C33.3125 21.9732 33.3701 22.1123 33.4727 22.2148C33.5752 22.3174 33.7143 22.375 33.8594 22.375C34.0044 22.375 34.1435 22.3174 34.2461 22.2148C34.3486 22.1123 34.4062 21.9732 34.4062 21.8281V7.60938C34.4062 6.88417 34.1182 6.18867 33.6054 5.67588C33.0926 5.16308 32.3971 4.875 31.6719 4.875ZM25.6562 3.78125C25.6562 3.49117 25.7715 3.21297 25.9766 3.00785C26.1817 2.80273 26.4599 2.6875 26.75 2.6875C27.0401 2.6875 27.3183 2.80273 27.5234 3.00785C27.7285 3.21297 27.8438 3.49117 27.8438 3.78125V7.0625C27.8438 7.35258 27.7285 7.63078 27.5234 7.8359C27.3183 8.04102 27.0401 8.15625 26.75 8.15625C26.4599 8.15625 26.1817 8.04102 25.9766 7.8359C25.7715 7.63078 25.6562 7.35258 25.6562 7.0625V3.78125ZM16.9062 3.78125C16.9062 3.49117 17.0215 3.21297 17.2266 3.00785C17.4317 2.80273 17.7099 2.6875 18 2.6875C18.2901 2.6875 18.5683 2.80273 18.7734 3.00785C18.9785 3.21297 19.0938 3.49117 19.0938 3.78125V7.0625C19.0938 7.35258 18.9785 7.63078 18.7734 7.8359C18.5683 8.04102 18.2901 8.15625 18 8.15625C17.7099 8.15625 17.4317 8.04102 17.2266 7.8359C17.0215 7.63078 16.9062 7.35258 16.9062 7.0625V3.78125ZM8.15625 3.78125C8.15625 3.49117 8.27148 3.21297 8.4766 3.00785C8.68172 2.80273 8.95992 2.6875 9.25 2.6875C9.54008 2.6875 9.81828 2.80273 10.0234 3.00785C10.2285 3.21297 10.3438 3.49117 10.3438 3.78125V7.0625C10.3438 7.35258 10.2285 7.63078 10.0234 7.8359C9.81828 8.04102 9.54008 8.15625 9.25 8.15625C8.95992 8.15625 8.68172 8.04102 8.4766 7.8359C8.27148 7.63078 8.15625 7.35258 8.15625 7.0625V3.78125ZM33.3125 11.4375H2.6875V7.60938C2.6888 7.17465 2.86207 6.75811 3.16946 6.45071C3.47686 6.14332 3.8934 5.97005 4.32812 5.96875H7.0625V7.0625C7.0625 7.64266 7.29297 8.19906 7.7032 8.6093C8.11344 9.01953 8.66984 9.25 9.25 9.25C9.83016 9.25 10.3866 9.01953 10.7968 8.6093C11.207 8.19906 11.4375 7.64266 11.4375 7.0625V5.96875H15.8125V7.0625C15.8125 7.64266 16.043 8.19906 16.4532 8.6093C16.8634 9.01953 17.4198 9.25 18 9.25C18.5802 9.25 19.1366 9.01953 19.5468 8.6093C19.957 8.19906 20.1875 7.64266 20.1875 7.0625V5.96875H24.5625V7.0625C24.5625 7.64266 24.793 8.19906 25.2032 8.6093C25.6134 9.01953 26.1698 9.25 26.75 9.25C27.3302 9.25 27.8866 9.01953 28.2968 8.6093C28.707 8.19906 28.9375 7.64266 28.9375 7.0625V5.96875H31.6719C32.1066 5.97005 32.5231 6.14332 32.8305 6.45071C33.1379 6.75811 33.3112 7.17465 33.3125 7.60938V11.4375Z" fill="#F14C4C"/>
<path d="M16.9062 16.3594C16.9062 16.0693 16.791 15.7911 16.5859 15.586C16.3808 15.3809 16.1026 15.2656 15.8125 15.2656H13.625C13.3349 15.2656 13.0567 15.3809 12.8516 15.586C12.6465 15.7911 12.5312 16.0693 12.5312 16.3594V18C12.5312 18.2901 12.6465 18.5683 12.8516 18.7734C13.0567 18.9785 13.3349 19.0938 13.625 19.0938H15.8125C16.1026 19.0938 16.3808 18.9785 16.5859 18.7734C16.791 18.5683 16.9062 18.2901 16.9062 18V16.3594ZM13.625 18V16.3594H15.8125V18H13.625Z" fill="#F14C4C"/>
<path d="M10.3438 16.3594C10.3438 16.0693 10.2285 15.7911 10.0234 15.586C9.81828 15.3809 9.54008 15.2656 9.25 15.2656H7.0625C6.77242 15.2656 6.49422 15.3809 6.2891 15.586C6.08398 15.7911 5.96875 16.0693 5.96875 16.3594V18C5.96875 18.2901 6.08398 18.5683 6.2891 18.7734C6.49422 18.9785 6.77242 19.0938 7.0625 19.0938H9.25C9.54008 19.0938 9.81828 18.9785 10.0234 18.7734C10.2285 18.5683 10.3438 18.2901 10.3438 18V16.3594ZM7.0625 18V16.3594H9.25V18H7.0625Z" fill="#F14C4C"/>
<path d="M28.9375 19.0938C29.2276 19.0938 29.5058 18.9785 29.7109 18.7734C29.916 18.5683 30.0312 18.2901 30.0312 18V16.3594C30.0312 16.0693 29.916 15.7911 29.7109 15.586C29.5058 15.3809 29.2276 15.2656 28.9375 15.2656H26.75C26.4599 15.2656 26.1817 15.3809 25.9766 15.586C25.7715 15.7911 25.6562 16.0693 25.6562 16.3594V18C25.6562 18.2901 25.7715 18.5683 25.9766 18.7734C26.1817 18.9785 26.4599 19.0938 26.75 19.0938H28.9375ZM26.75 16.3594H28.9375V18H26.75V16.3594Z" fill="#F14C4C"/>
<path d="M16.9062 21.2812C16.9062 20.9912 16.791 20.713 16.5859 20.5079C16.3808 20.3027 16.1026 20.1875 15.8125 20.1875H13.625C13.3349 20.1875 13.0567 20.3027 12.8516 20.5079C12.6465 20.713 12.5312 20.9912 12.5312 21.2812V22.9219C12.5312 23.212 12.6465 23.4902 12.8516 23.6953C13.0567 23.9004 13.3349 24.0156 13.625 24.0156H15.8125C16.1026 24.0156 16.3808 23.9004 16.5859 23.6953C16.791 23.4902 16.9062 23.212 16.9062 22.9219V21.2812ZM13.625 22.9219V21.2812H15.8125V22.9219H13.625Z" fill="#F14C4C"/>
<path d="M10.3438 21.2812C10.3438 20.9912 10.2285 20.713 10.0234 20.5079C9.81828 20.3027 9.54008 20.1875 9.25 20.1875H7.0625C6.77242 20.1875 6.49422 20.3027 6.2891 20.5079C6.08398 20.713 5.96875 20.9912 5.96875 21.2812V22.9219C5.96875 23.212 6.08398 23.4902 6.2891 23.6953C6.49422 23.9004 6.77242 24.0156 7.0625 24.0156H9.25C9.54008 24.0156 9.81828 23.9004 10.0234 23.6953C10.2285 23.4902 10.3438 23.212 10.3438 22.9219V21.2812ZM7.0625 22.9219V21.2812H9.25V22.9219H7.0625Z" fill="#F14C4C"/>
<path d="M15.8125 25.1094H13.625C13.3349 25.1094 13.0567 25.2246 12.8516 25.4297C12.6465 25.6348 12.5312 25.913 12.5312 26.2031V27.8438C12.5312 28.1338 12.6465 28.412 12.8516 28.6171C13.0567 28.8223 13.3349 28.9375 13.625 28.9375H15.8125C16.1026 28.9375 16.3808 28.8223 16.5859 28.6171C16.791 28.412 16.9062 28.1338 16.9062 27.8438V26.2031C16.9062 25.913 16.791 25.6348 16.5859 25.4297C16.3808 25.2246 16.1026 25.1094 15.8125 25.1094ZM13.625 27.8438V26.2031H15.8125V27.8438H13.625Z" fill="#F14C4C"/>
<path d="M20.1875 19.0938H22.375C22.6651 19.0938 22.9433 18.9785 23.1484 18.7734C23.3535 18.5683 23.4688 18.2901 23.4688 18V16.3594C23.4688 16.0693 23.3535 15.7911 23.1484 15.586C22.9433 15.3809 22.6651 15.2656 22.375 15.2656H20.1875C19.8974 15.2656 19.6192 15.3809 19.4141 15.586C19.209 15.7911 19.0938 16.0693 19.0938 16.3594V18C19.0938 18.2901 19.209 18.5683 19.4141 18.7734C19.6192 18.9785 19.8974 19.0938 20.1875 19.0938ZM20.1875 16.3594H22.375V18H20.1875V16.3594Z" fill="#F14C4C"/>
<path d="M19.0938 22.9219C19.0938 23.212 19.209 23.4902 19.4141 23.6953C19.6192 23.9004 19.8974 24.0156 20.1875 24.0156C20.3325 24.0156 20.4716 23.958 20.5742 23.8554C20.6768 23.7529 20.7344 23.6138 20.7344 23.4688C20.7344 23.3237 20.6768 23.1846 20.5742 23.0821C20.4716 22.9795 20.3325 22.9219 20.1875 22.9219V21.2812H22.375C22.52 21.2812 22.6591 21.2236 22.7617 21.1211C22.8643 21.0185 22.9219 20.8794 22.9219 20.7344C22.9219 20.5893 22.8643 20.4502 22.7617 20.3477C22.6591 20.2451 22.52 20.1875 22.375 20.1875H20.1875C19.8974 20.1875 19.6192 20.3027 19.4141 20.5079C19.209 20.713 19.0938 20.9912 19.0938 21.2812V22.9219Z" fill="#F14C4C"/>
<path d="M9.25 25.1094H7.0625C6.77242 25.1094 6.49422 25.2246 6.2891 25.4297C6.08398 25.6348 5.96875 25.913 5.96875 26.2031V27.8438C5.96875 28.1338 6.08398 28.412 6.2891 28.6171C6.49422 28.8223 6.77242 28.9375 7.0625 28.9375H9.25C9.54008 28.9375 9.81828 28.8223 10.0234 28.6171C10.2285 28.412 10.3438 28.1338 10.3438 27.8438V26.2031C10.3438 25.913 10.2285 25.6348 10.0234 25.4297C9.81828 25.2246 9.54008 25.1094 9.25 25.1094ZM7.0625 27.8438V26.2031H9.25V27.8438H7.0625Z" fill="#F14C4C"/>
<path d="M27.2969 20.1875C25.8908 20.1875 24.5163 20.6045 23.3471 21.3856C22.178 22.1668 21.2668 23.2772 20.7287 24.5762C20.1906 25.8753 20.0498 27.3048 20.3241 28.6838C20.5984 30.0629 21.2755 31.3297 22.2698 32.324C23.2641 33.3182 24.5308 33.9953 25.9099 34.2696C27.289 34.544 28.7184 34.4032 30.0175 33.8651C31.3166 33.327 32.4269 32.4158 33.2081 31.2466C33.9893 30.0775 34.4063 28.703 34.4063 27.2969C34.4041 25.412 33.6544 23.605 32.3216 22.2722C30.9888 20.9394 29.1817 20.1897 27.2969 20.1875ZM27.2969 33.3125C26.1071 33.3125 24.944 32.9597 23.9548 32.2987C22.9655 31.6377 22.1945 30.6982 21.7392 29.599C21.2839 28.4997 21.1647 27.2902 21.3968 26.1233C21.629 24.9564 22.2019 23.8845 23.0432 23.0432C23.8845 22.2019 24.9564 21.629 26.1233 21.3968C27.2902 21.1647 28.4997 21.2839 29.599 21.7392C30.6982 22.1945 31.6377 22.9655 32.2987 23.9548C32.9597 24.944 33.3125 26.1071 33.3125 27.2969C33.3106 28.8917 32.6762 30.4207 31.5485 31.5485C30.4207 32.6762 28.8917 33.3106 27.2969 33.3125Z" fill="#F14C4C"/>
<path d="M30.4569 25.0043L26.2033 29.2579L24.2701 27.3242C24.1669 27.2246 24.0288 27.1694 23.8854 27.1707C23.742 27.1719 23.6048 27.2295 23.5034 27.3308C23.402 27.4322 23.3445 27.5694 23.3433 27.7128C23.342 27.8562 23.3972 27.9943 23.4968 28.0975L25.8166 30.4179C25.9192 30.5204 26.0582 30.578 26.2033 30.578C26.3483 30.578 26.4873 30.5204 26.5899 30.4179L31.2301 25.7776C31.3298 25.6745 31.3849 25.5363 31.3836 25.393C31.3824 25.2496 31.3249 25.1124 31.2235 25.011C31.1221 24.9096 30.9849 24.8521 30.8415 24.8509C30.6981 24.8496 30.56 24.9047 30.4569 25.0043Z" fill="#F14C4C"/>
</svg>
