<svg width="26" height="25" viewBox="0 0 26 25" fill="none" xmlns="http://www.w3.org/2000/svg">
<path d="M8.66667 2.08325V5.20825ZM17.3333 2.08325V5.20825ZM3.79167 9.46867H22.2083ZM22.75 8.85409V17.7083C22.75 20.8333 21.125 22.9166 17.3333 22.9166H8.66667C4.875 22.9166 3.25 20.8333 3.25 17.7083V8.85409C3.25 5.72909 4.875 3.64575 8.66667 3.64575H17.3333C21.125 3.64575 22.75 5.72909 22.75 8.85409Z" fill="#FFD2D2"/>
<path d="M8.66667 2.08325V5.20825M17.3333 2.08325V5.20825M3.79167 9.46867H22.2083M22.75 8.85409V17.7083C22.75 20.8333 21.125 22.9166 17.3333 22.9166H8.66667C4.875 22.9166 3.25 20.8333 3.25 17.7083V8.85409C3.25 5.72909 4.875 3.64575 8.66667 3.64575H17.3333C21.125 3.64575 22.75 5.72909 22.75 8.85409Z" stroke="#F14C4C" stroke-width="1.4" stroke-miterlimit="10" stroke-linecap="round" stroke-linejoin="round"/>
<path d="M17.0031 14.2708H17.0129M17.0031 17.3958H17.0129M12.9948 14.2708H13.0056M12.9948 17.3958H13.0056M8.98535 14.2708H8.99619M8.98535 17.3958H8.99619" stroke="#F14C4C" stroke-width="1.4" stroke-linecap="round" stroke-linejoin="round"/>
</svg>
