<svg width="19" height="19" viewBox="0 0 19 19" fill="none" xmlns="http://www.w3.org/2000/svg">
<path d="M15.8333 7.60008C15.8333 4.43341 14.5666 3.16675 11.4 3.16675H7.59996C4.43329 3.16675 3.16663 4.43341 3.16663 7.60008V11.4001C3.16663 14.5667 4.43329 15.8334 7.59996 15.8334" stroke="black" stroke-width="0.9" stroke-linecap="round" stroke-linejoin="round"/>
<path d="M12.9438 6.33325C12.5084 5.77909 11.78 5.54159 10.6875 5.54159H8.31254C6.33337 5.54159 5.54171 6.33325 5.54171 8.31242V10.6874C5.54171 11.7799 5.77921 12.5083 6.32546 12.9437M6.34129 3.16659V1.58325M9.50004 3.16659V1.58325M12.6667 3.16659V1.58325M15.8334 6.33325H17.4167M6.34129 15.8333V17.4166M1.58337 6.33325H3.16671M1.58337 9.49992H3.16671M1.58337 12.6666H3.16671" stroke="black" stroke-width="0.9" stroke-linecap="round" stroke-linejoin="round"/>
<path d="M13.2287 14.717C13.394 14.717 13.5577 14.6844 13.7104 14.6211C13.8631 14.5579 14.0019 14.4652 14.1188 14.3483C14.2357 14.2314 14.3284 14.0926 14.3917 13.9399C14.4549 13.7872 14.4875 13.6235 14.4875 13.4582C14.4875 13.2929 14.4549 13.1292 14.3917 12.9765C14.3284 12.8238 14.2357 12.685 14.1188 12.5681C14.0019 12.4513 13.8631 12.3585 13.7104 12.2953C13.5577 12.232 13.394 12.1995 13.2287 12.1995C12.8949 12.1995 12.5747 12.3321 12.3386 12.5681C12.1026 12.8042 11.97 13.1244 11.97 13.4582C11.97 13.7921 12.1026 14.1122 12.3386 14.3483C12.5747 14.5843 12.8949 14.717 13.2287 14.717Z" stroke="black" stroke-width="0.9" stroke-miterlimit="10" stroke-linecap="round" stroke-linejoin="round"/>
<path d="M9.03288 13.8225V13.0862C9.03288 12.6508 9.38913 12.2945 9.82454 12.2945C10.5845 12.2945 10.8933 11.7562 10.5133 11.0991C10.4609 11.0088 10.427 10.909 10.4134 10.8054C10.3998 10.7019 10.4068 10.5967 10.434 10.4959C10.4613 10.3951 10.5082 10.3006 10.572 10.218C10.6359 10.1354 10.7155 10.0663 10.8062 10.0145L11.5266 9.59496C11.8591 9.39704 12.2866 9.51579 12.4845 9.84829L12.532 9.92746C12.912 10.5845 13.5295 10.5845 13.9095 9.92746L13.957 9.84829C14.155 9.51579 14.5825 9.40496 14.915 9.59496L15.6354 10.0145C16.0154 10.2362 16.15 10.7191 15.9283 11.0991C15.5483 11.7562 15.857 12.2945 16.617 12.2945C17.0525 12.2945 17.4087 12.6508 17.4087 13.0862V13.8225C17.4087 14.2579 17.0525 14.6141 16.617 14.6141C15.857 14.6141 15.5483 15.1525 15.9283 15.8095C15.9806 15.8999 16.0146 15.9997 16.0282 16.1033C16.0418 16.2068 16.0348 16.312 16.0076 16.4128C15.9803 16.5136 15.9334 16.608 15.8696 16.6906C15.8057 16.7733 15.7261 16.8424 15.6354 16.8941L14.915 17.3137C14.5825 17.5116 14.155 17.3929 13.957 17.0604L13.9095 16.9812C13.5295 16.3241 12.912 16.3241 12.532 16.9812L12.4845 17.0604C12.2866 17.3929 11.8591 17.5037 11.5266 17.3137L10.8062 16.8941C10.4262 16.6725 10.2916 16.1895 10.5133 15.8095C10.8933 15.1525 10.5845 14.6141 9.82454 14.6141C9.72029 14.6152 9.61687 14.5954 9.52034 14.556C9.42381 14.5166 9.33612 14.4583 9.26239 14.3846C9.18867 14.3109 9.13039 14.2232 9.09098 14.1267C9.05157 14.0301 9.03182 13.9267 9.03288 13.8225Z" stroke="black" stroke-width="0.9" stroke-miterlimit="10" stroke-linecap="round" stroke-linejoin="round"/>
</svg>
