<svg width="15" height="15" viewBox="0 0 15 15" fill="none" xmlns="http://www.w3.org/2000/svg">
<path d="M10.75 4.49463H12.375C12.806 4.49463 13.2193 4.63079 13.524 4.87316C13.8288 5.11554 14 5.44426 14 5.78703V12.5075C14 12.8503 13.8288 13.179 13.524 13.4214C13.2193 13.6637 12.806 13.7999 12.375 13.7999H2.625C2.19402 13.7999 1.7807 13.6637 1.47595 13.4214C1.1712 13.179 1 12.8503 1 12.5075V5.78703C1 5.44426 1.1712 5.11554 1.47595 4.87316C1.7807 4.63079 2.19402 4.49463 2.625 4.49463H4.25" fill="#FFD2D2"/>
<path d="M10.75 4.49463H12.375C12.806 4.49463 13.2193 4.63079 13.524 4.87316C13.8288 5.11554 14 5.44426 14 5.78703V12.5075C14 12.8503 13.8288 13.179 13.524 13.4214C13.2193 13.6637 12.806 13.7999 12.375 13.7999H2.625C2.19402 13.7999 1.7807 13.6637 1.47595 13.4214C1.1712 13.179 1 12.8503 1 12.5075V5.78703C1 5.44426 1.1712 5.11554 1.47595 4.87316C1.7807 4.63079 2.19402 4.49463 2.625 4.49463H4.25" stroke="#F14C4C" stroke-width="1.1" stroke-linecap="round" stroke-linejoin="round"/>
<path d="M5.33337 7.86246L7.62749 10.3332L9.92161 7.86246M7.62749 0.944336V9.83907" stroke="#F14C4C" stroke-width="1.1" stroke-linecap="round" stroke-linejoin="round"/>
</svg>
