<svg width="22" height="22" viewBox="0 0 22 22" fill="none" xmlns="http://www.w3.org/2000/svg">
<path fill-rule="evenodd" clip-rule="evenodd" d="M2.70337 2.02759C1.58356 2.02759 0.675781 2.93537 0.675781 4.05517V14.869C0.675781 15.9888 1.58356 16.8966 2.70337 16.8966H9.03957L8.87061 18.2483H6.08268C5.70941 18.2483 5.40682 18.5509 5.40682 18.9241C5.40682 19.2974 5.70941 19.6 6.08268 19.6H15.5447C15.918 19.6 16.2206 19.2974 16.2206 18.9241C16.2206 18.5509 15.918 18.2483 15.5447 18.2483H12.7568L12.5879 16.8966H18.9241C20.0439 16.8966 20.9516 15.9888 20.9516 14.869V4.05517C20.9516 2.93537 20.0439 2.02759 18.9241 2.02759H2.70337ZM2.02751 4.05517C2.02751 3.68191 2.3301 3.37931 2.70337 3.37931H18.9241C19.2973 3.37931 19.5999 3.68191 19.5999 4.05517V12.8414H2.02751V4.05517ZM10.8137 15.5448C10.993 15.5448 11.1649 15.4736 11.2916 15.3469C11.4184 15.2201 11.4896 15.0482 11.4896 14.869C11.4896 14.7353 11.4499 14.6046 11.3757 14.4935C11.3014 14.3823 11.1959 14.2957 11.0724 14.2446C10.9489 14.1934 10.813 14.18 10.6819 14.2061C10.5508 14.2322 10.4303 14.2965 10.3358 14.3911C10.2413 14.4856 10.1769 14.606 10.1508 14.7371C10.1248 14.8682 10.1381 15.0041 10.1893 15.1276C10.2405 15.2511 10.3271 15.3567 10.4382 15.4309C10.5494 15.5052 10.68 15.5448 10.8137 15.5448Z" fill="#263238"/>
</svg>
