<svg width="14" height="16" viewBox="0 0 14 16" fill="none" xmlns="http://www.w3.org/2000/svg">
<path d="M6.93619 9.2149C7.22187 9.2149 7.50476 9.15863 7.76869 9.04931C8.03263 8.93998 8.27245 8.77974 8.47446 8.57773C8.67647 8.37572 8.83671 8.1359 8.94604 7.87197C9.05536 7.60803 9.11163 7.32514 9.11163 7.03946C9.11163 6.75378 9.05536 6.47089 8.94604 6.20695C8.83671 5.94302 8.67647 5.7032 8.47446 5.50119C8.27245 5.29918 8.03263 5.13894 7.76869 5.02961C7.50476 4.92028 7.22187 4.86401 6.93619 4.86401C6.35922 4.86401 5.80589 5.09321 5.39792 5.50119C4.98994 5.90916 4.76074 6.4625 4.76074 7.03946C4.76074 7.61642 4.98994 8.16976 5.39792 8.57773C5.80589 8.98571 6.35922 9.2149 6.93619 9.2149Z" stroke="#E26E8C" stroke-width="1.10075"/>
<path d="M1.09358 5.77032C2.46718 -0.267931 11.413 -0.260959 12.7796 5.7773C13.5815 9.31937 11.3781 12.3176 9.44673 14.1723C8.77184 14.8232 7.87076 15.1869 6.93312 15.1869C5.99548 15.1869 5.0944 14.8232 4.4195 14.1723C2.49507 12.3176 0.291733 9.3124 1.09358 5.77032Z" stroke="#E26E8C" stroke-width="1.10075"/>
</svg>
