<svg width="18" height="19" viewBox="0 0 18 19" fill="none" xmlns="http://www.w3.org/2000/svg">
<path d="M8.80567 10.8242C9.10634 10.8242 9.40406 10.765 9.68184 10.6499C9.95963 10.5349 10.212 10.3662 10.4246 10.1536C10.6372 9.94103 10.8059 9.68863 10.9209 9.41085C11.036 9.13307 11.0952 8.83534 11.0952 8.53467C11.0952 8.234 11.036 7.93628 10.9209 7.6585C10.8059 7.38072 10.6372 7.12832 10.4246 6.91571C10.212 6.70311 9.95963 6.53446 9.68184 6.4194C9.40406 6.30434 9.10634 6.24512 8.80567 6.24512C8.19844 6.24512 7.61608 6.48634 7.18671 6.91571C6.75733 7.34509 6.51611 7.92745 6.51611 8.53467C6.51611 9.1419 6.75733 9.72426 7.18671 10.1536C7.61608 10.583 8.19844 10.8242 8.80567 10.8242Z" stroke="#616161" stroke-width="1.10075"/>
<path d="M2.65666 7.19909C4.10231 0.84411 13.5174 0.851448 14.9557 7.20643C15.7996 10.9343 13.4807 14.0898 11.448 16.0418C10.7377 16.7268 9.78932 17.1096 8.8025 17.1096C7.81568 17.1096 6.86733 16.7268 6.15704 16.0418C4.13166 14.0898 1.81275 10.927 2.65666 7.19909Z" stroke="#616161" stroke-width="1.10075"/>
</svg>
