<svg width="26" height="26" viewBox="0 0 26 26" fill="none" xmlns="http://www.w3.org/2000/svg">
<path d="M9.92344 11.7757C9.81511 11.7649 9.68511 11.7649 9.56594 11.7757C8.3225 11.7335 7.14431 11.209 6.28088 10.3132C5.41745 9.41739 4.93658 8.22071 4.94011 6.97655C4.94011 4.32239 7.08511 2.16655 9.75011 2.16655C11.0244 2.14357 12.2556 2.62772 13.1728 3.5125C14.0901 4.39728 14.6184 5.61022 14.6414 6.88447C14.6643 8.15872 14.1802 9.38992 13.2954 10.3072C12.4106 11.2245 11.1977 11.7527 9.92344 11.7757ZM17.7776 4.33322C19.8793 4.33322 21.5693 6.03405 21.5693 8.12489C21.5693 10.1724 19.9443 11.8407 17.9184 11.9166C17.8249 11.9057 17.7304 11.9057 17.6368 11.9166M4.50678 15.7732C1.88511 17.5282 1.88511 20.3882 4.50678 22.1324C7.48594 24.1257 12.3718 24.1257 15.3509 22.1324C17.9726 20.3774 17.9726 17.5174 15.3509 15.7732C12.3826 13.7907 7.49678 13.7907 4.50678 15.7732ZM19.8684 21.6666C20.6484 21.5041 21.3851 21.1899 21.9918 20.7241C23.6818 19.4566 23.6818 17.3657 21.9918 16.0982C21.3959 15.6432 20.6701 15.3399 19.9009 15.1666" fill="#FFDDD6"/>
<path d="M17.7776 4.33322C19.8793 4.33322 21.5693 6.03405 21.5693 8.12489C21.5693 10.1724 19.9443 11.8407 17.9184 11.9166C17.8249 11.9057 17.7304 11.9057 17.6368 11.9166M19.8684 21.6666C20.6484 21.5041 21.3851 21.1899 21.9918 20.7241C23.6818 19.4566 23.6818 17.3657 21.9918 16.0982C21.3959 15.6432 20.6701 15.3399 19.9009 15.1666M9.92344 11.7757C9.81511 11.7649 9.68511 11.7649 9.56594 11.7757C8.3225 11.7335 7.14431 11.209 6.28088 10.3132C5.41745 9.41739 4.93658 8.22071 4.94011 6.97655C4.94011 4.32239 7.08511 2.16655 9.75011 2.16655C11.0244 2.14357 12.2556 2.62772 13.1728 3.5125C14.0901 4.39728 14.6184 5.61022 14.6414 6.88447C14.6643 8.15873 14.1802 9.38992 13.2954 10.3072C12.4106 11.2245 11.1977 11.7527 9.92344 11.7757ZM4.50678 15.7732C1.88511 17.5282 1.88511 20.3882 4.50678 22.1324C7.48594 24.1257 12.3718 24.1257 15.3509 22.1324C17.9726 20.3774 17.9726 17.5174 15.3509 15.7732C12.3826 13.7907 7.49678 13.7907 4.50678 15.7732Z" stroke="#F14C4C" stroke-width="1.25806" stroke-linecap="round" stroke-linejoin="round"/>
</svg>
