<svg width="18" height="25" viewBox="0 0 18 25" fill="none" xmlns="http://www.w3.org/2000/svg">
<path d="M8.95083 11.3492C8.83417 11.3375 8.69417 11.3375 8.56583 11.3492C7.22674 11.3037 5.95792 10.7388 5.02807 9.77413C4.09822 8.80944 3.58036 7.5207 3.58417 6.18084C3.58417 3.32251 5.89417 1.00084 8.76417 1.00084C10.1364 0.976089 11.4623 1.49748 12.4502 2.45032C13.438 3.40317 14.0069 4.7094 14.0317 6.08168C14.0564 7.45395 13.535 8.77985 12.5822 9.7677C11.6293 10.7555 10.3231 11.3244 8.95083 11.3492ZM3.1175 15.6542C0.294166 17.5442 0.294166 20.6242 3.1175 22.5025C6.32583 24.6492 11.5875 24.6492 14.7958 22.5025C17.6192 20.6125 17.6192 17.5325 14.7958 15.6542C11.5992 13.5192 6.3375 13.5192 3.1175 15.6542Z" fill="#FFD3D3" stroke="#F14C4C" stroke-width="1.5" stroke-linecap="round" stroke-linejoin="round"/>
</svg>
