<svg width="15" height="15" viewBox="0 0 15 15" fill="none" xmlns="http://www.w3.org/2000/svg">
<path d="M10.4391 2.40071C11.7242 2.40071 12.7575 3.44067 12.7575 4.71909C12.7575 5.97102 11.7639 6.99111 10.5253 7.03748C10.468 7.03085 10.4103 7.03085 10.353 7.03748M11.7176 12.999C12.1945 12.8997 12.6449 12.7076 13.0159 12.4227C14.0492 11.6477 14.0492 10.3693 13.0159 9.59432C12.6515 9.31611 12.2077 9.13064 11.7374 9.02466M5.63678 6.95136C5.57054 6.94474 5.49106 6.94474 5.41819 6.95136C4.6579 6.92555 3.9375 6.60482 3.40956 6.0571C2.88163 5.50938 2.58761 4.77768 2.58976 4.01695C2.58976 2.39408 3.90131 1.07592 5.5308 1.07592C6.30993 1.06186 7.06274 1.35789 7.6236 1.89889C8.18447 2.43988 8.50746 3.18152 8.52151 3.96065C8.53557 4.73978 8.23954 5.49259 7.69855 6.05345C7.15755 6.61432 6.41592 6.93731 5.63678 6.95136ZM2.32481 9.3956C0.721809 10.4687 0.721809 12.2174 2.32481 13.2839C4.14639 14.5027 7.1338 14.5027 8.95538 13.2839C10.5584 12.2108 10.5584 10.4621 8.95538 9.3956C7.14042 8.18342 4.15302 8.18342 2.32481 9.3956Z" stroke="#23A979" stroke-width="1.04571" stroke-linecap="round" stroke-linejoin="round"/>
</svg>
