<svg width="20" height="20" viewBox="0 0 20 20" fill="none" xmlns="http://www.w3.org/2000/svg">
<path d="M9.9375 1C5.00168 1 1 5.00168 1 9.9375C1 14.8733 5.00168 18.875 9.9375 18.875C14.8733 18.875 18.875 14.8733 18.875 9.9375C18.875 5.00168 14.8733 1 9.9375 1Z" stroke="#29343A" stroke-miterlimit="10"/>
<path d="M9.93748 1C7.44229 1 5.09619 5.00168 5.09619 9.9375C5.09619 14.8733 7.44229 18.875 9.93748 18.875C12.4327 18.875 14.7788 14.8733 14.7788 9.9375C14.7788 5.00168 12.4327 1 9.93748 1Z" stroke="#29343A" stroke-miterlimit="10"/>
<path d="M3.979 4.15088C5.62213 5.31748 7.69064 6.01314 9.93748 6.01314C12.1843 6.01314 14.2528 5.31748 15.896 4.15088M15.896 15.7241C14.2528 14.5575 12.1843 13.8618 9.93748 13.8618C7.69064 13.8618 5.62213 14.5575 3.979 15.7241" stroke="#29343A" stroke-linecap="round" stroke-linejoin="round"/>
<path d="M9.9375 1V18.875M18.875 9.9375H1" stroke="#29343A" stroke-miterlimit="10"/>
</svg>
