<svg width="17" height="20" viewBox="0 0 17 20" fill="none" xmlns="http://www.w3.org/2000/svg">
<path d="M8.4994 11.182C8.85577 11.182 9.20866 11.1101 9.53791 10.9704C9.86716 10.8307 10.1663 10.626 10.4183 10.3679C10.6703 10.1098 10.8702 9.80345 11.0066 9.46624C11.143 9.12904 11.2132 8.76762 11.2132 8.40264C11.2132 8.03765 11.143 7.67623 11.0066 7.33903C10.8702 7.00182 10.6703 6.69543 10.4183 6.43734C10.1663 6.17926 9.86716 5.97453 9.53791 5.83486C9.20866 5.69518 8.85577 5.62329 8.4994 5.62329C7.77967 5.62329 7.08941 5.91611 6.58048 6.43734C6.07156 6.95857 5.78564 7.66551 5.78564 8.40264C5.78564 9.13976 6.07156 9.8467 6.58048 10.3679C7.08941 10.8892 7.77967 11.182 8.4994 11.182Z" stroke="#F14C4C" stroke-width="1.8"/>
<path d="M1.21115 6.78139C2.92464 -0.933067 14.0841 -0.924159 15.7889 6.7903C16.7891 11.3156 14.0406 15.1462 11.6313 17.5157C10.7894 18.3473 9.66532 18.812 8.49566 18.812C7.32601 18.812 6.20196 18.3473 5.36006 17.5157C2.95943 15.1462 0.210885 11.3067 1.21115 6.78139Z" stroke="#F14C4C" stroke-width="1.6"/>
</svg>
