<svg width="19" height="18" viewBox="0 0 19 18" fill="none" xmlns="http://www.w3.org/2000/svg">
<path d="M2.46094 6.50098C3.6175 6.50098 4.42188 7.29236 4.42188 8.11035V15.8904C4.42188 16.7084 3.6175 17.4998 2.46094 17.4998C1.30438 17.4998 0.5 16.7084 0.5 15.8904V8.11035C0.5 7.28884 1.30027 6.50098 2.46094 6.50098Z" fill="#FFDDD6" stroke="#F14C4C"/>
<path d="M9.1543 0.5C10.3109 0.5 11.1152 1.29138 11.1152 2.10938V15.8906C11.1152 16.7086 10.3109 17.5 9.1543 17.5C7.99774 17.5 7.19336 16.7086 7.19336 15.8906V2.10938C7.19336 1.29138 7.99774 0.5 9.1543 0.5Z" fill="#FFDDD6" stroke="#F14C4C"/>
<path d="M15.8477 12.499C17.0042 12.499 17.8086 13.2904 17.8086 14.1084V15.8908C17.8086 16.7088 17.0042 17.5002 15.8477 17.5002C14.6911 17.5002 13.8867 16.7088 13.8867 15.8908V14.1084C13.8867 13.2904 14.6911 12.499 15.8477 12.499Z" fill="#FFDDD6" stroke="#F14C4C"/>
</svg>
