<svg width="20" height="20" viewBox="0 0 20 20" fill="none" xmlns="http://www.w3.org/2000/svg">
<circle cx="10" cy="10" r="10" fill="#FFD3D3"/>
<path d="M10 0C4.47301 0 0 4.4725 0 10C0 15.5269 4.4725 20 10 20C15.527 20 20 15.5275 20 10C20 4.47301 15.5275 0 10 0ZM10 18.6046C5.25539 18.6046 1.39535 14.7446 1.39535 10C1.39535 5.25535 5.25539 1.39535 10 1.39535C14.7446 1.39535 18.6046 5.25535 18.6046 10C18.6046 14.7446 14.7446 18.6046 10 18.6046Z" fill="#F14C4C"/>
<path d="M9.70425 12.6533C9.1514 12.6533 8.70386 13.114 8.70386 13.6668C8.70386 14.2066 9.13823 14.6804 9.70425 14.6804C10.2703 14.6804 10.7178 14.2066 10.7178 13.6668C10.7178 13.114 10.2571 12.6533 9.70425 12.6533Z" fill="#F14C4C"/>
<path d="M9.87523 4.97925C8.0982 4.97925 7.2821 6.03233 7.2821 6.74311C7.2821 7.25647 7.71648 7.49343 8.07187 7.49343C8.78269 7.49343 8.49312 6.47983 9.83574 6.47983C10.4939 6.47983 11.0204 6.76944 11.0204 7.37495C11.0204 8.08573 10.2833 8.49378 9.8489 8.86233C9.46714 9.19136 8.96699 9.73108 8.96699 10.8631C8.96699 11.5476 9.15128 11.745 9.69093 11.745C10.3359 11.745 10.4675 11.4555 10.4675 11.2053C10.4675 10.5208 10.4807 10.126 11.2047 9.55995C11.5601 9.28354 12.6789 8.38843 12.6789 7.15112C12.6789 5.91382 11.5601 4.97925 9.87523 4.97925Z" fill="#F14C4C"/>
</svg>
